<?xml version="1.0" standalone="no"?>
<!DOCTYPE svg PUBLIC "-//W3C//DTD SVG 20010904//EN"
 "http://www.w3.org/TR/2001/REC-SVG-20010904/DTD/svg10.dtd">
<svg version="1.0" xmlns="http://www.w3.org/2000/svg"
 width="289.000000pt" height="252.000000pt" viewBox="0 0 289.000000 252.000000"
 preserveAspectRatio="xMidYMid meet">

<g transform="translate(0.000000,252.000000) scale(0.100000,-0.100000)"
fill="#000000" stroke="none">
<path d="M110 2438 c0 -30 -5 -28 110 -47 72 -12 106 -32 135 -82 19 -32 20
-55 23 -391 l3 -358 34 0 35 0 1 58 c1 31 1 182 -1 336 -1 207 1 277 10 274 6
-2 43 -84 81 -183 39 -99 87 -225 109 -280 21 -55 47 -122 58 -150 l20 -50
162 -3 c160 -2 161 -2 155 18 -4 12 -38 103 -76 203 -39 100 -99 259 -133 352
-35 94 -78 206 -95 250 l-32 80 -299 0 -300 0 0 -27z"/>
<path d="M2414 2463 c-209 -3 -233 -5 -239 -21 -7 -19 -194 -519 -236 -632
-15 -41 -40 -106 -54 -145 -42 -110 -42 -105 -2 -105 25 0 39 6 46 18 17 32
231 614 231 629 0 8 5 11 10 8 6 -4 10 -125 10 -331 l0 -324 155 0 155 0 0
298 c1 473 13 511 169 534 117 18 113 16 109 46 -4 32 22 30 -354 25z"/>
<path d="M795 1362 c-5 -4 -24 -47 -41 -95 -16 -49 -34 -89 -40 -90 -5 -1 -16
18 -24 43 -37 109 -53 140 -70 140 -15 0 -20 -15 -29 -82 -7 -46 -15 -100 -18
-120 -4 -30 -2 -38 10 -38 11 0 17 18 24 72 4 39 13 73 19 75 6 2 23 -29 39
-69 44 -112 58 -111 95 6 28 92 44 88 54 -13 5 -46 12 -71 21 -75 23 -9 25 6
10 105 -8 52 -15 99 -15 105 0 18 -25 44 -35 36z"/>
<path d="M996 1363 c-3 -3 -6 -60 -6 -125 0 -98 3 -118 15 -118 12 0 15 20 15
119 0 109 -6 142 -24 124z"/>
<path d="M1221 1357 c-88 -45 -92 -190 -7 -231 35 -17 126 -9 116 9 -3 6 -9 8
-15 6 -41 -16 -66 -12 -95 17 -26 26 -30 38 -30 82 0 44 4 56 29 81 33 32 57
36 87 14 22 -17 44 -19 44 -4 0 12 -61 39 -87 39 -10 0 -29 -6 -42 -13z"/>
<path d="M1485 1359 c-3 -8 -4 -63 -3 -124 3 -94 5 -110 20 -113 14 -3 17 5
16 39 -1 55 19 68 50 31 57 -69 75 -86 79 -75 2 6 -8 30 -23 52 l-26 40 26 31
c32 39 33 61 3 96 -19 22 -34 28 -80 32 -42 3 -58 1 -62 -9z m107 -26 c39 -35
11 -103 -44 -103 -27 0 -28 1 -28 53 0 30 3 57 7 60 12 12 46 7 65 -10z"/>
<path d="M1835 1361 c-43 -19 -68 -59 -72 -113 -7 -90 47 -147 126 -134 97 15
133 154 58 224 -27 25 -81 36 -112 23z m66 -21 c75 -41 53 -210 -28 -210 -30
0 -73 45 -74 79 -3 74 10 112 45 129 28 14 34 14 57 2z"/>
<path d="M2120 1240 c0 -99 3 -120 15 -120 11 0 15 19 17 88 l3 87 52 -70 c28
-38 59 -81 69 -93 10 -15 20 -20 25 -15 15 15 7 235 -8 241 -10 3 -13 -17 -13
-77 0 -45 -4 -81 -9 -81 -5 0 -35 36 -66 80 -31 44 -63 80 -71 80 -11 0 -14
-23 -14 -120z"/>
<path d="M385 878 c-2 -7 -6 -141 -7 -298 -3 -274 -4 -287 -26 -331 -25 -51
-73 -83 -134 -93 -21 -3 -54 -8 -73 -11 -30 -5 -35 -10 -35 -33 l0 -27 330 0
331 0 -6 25 c-4 14 -8 27 -10 29 -2 1 -38 7 -79 11 -120 14 -176 51 -202 134
-13 39 -17 114 -21 329 l-6 277 -29 0 c-16 0 -31 -6 -33 -12z"/>
<path d="M993 878 c21 -54 144 -366 181 -463 141 -365 137 -355 161 -355 12 0
27 6 32 13 9 11 303 800 303 812 0 3 -17 5 -37 5 l-38 0 -64 -178 c-35 -97
-68 -181 -72 -186 -8 -9 -21 17 -59 119 -12 33 -28 74 -35 90 -6 17 -22 58
-35 93 l-22 62 -160 0 c-124 0 -159 -3 -155 -12z"/>
<path d="M2185 878 c-2 -7 -6 -146 -7 -308 -3 -272 -5 -298 -23 -335 -24 -48
-65 -73 -131 -81 -113 -12 -114 -13 -114 -42 l0 -27 430 0 430 0 0 27 c0 24
-4 27 -47 33 -109 14 -124 18 -155 39 -66 44 -78 114 -78 454 l0 252 -150 0
c-112 0 -152 -3 -155 -12z"/>
</g>
</svg>
